<svg width="35" height="35" viewBox="0 0 35 35" fill="none" xmlns="http://www.w3.org/2000/svg">
<g clip-path="url(#clip0_502_654)">
<path d="M29.8987 2.13563C30.4652 2.13563 31.0084 2.36063 31.4089 2.76114C31.8094 3.16164 32.0344 3.70485 32.0344 4.27125V21.3563C32.0344 21.9227 31.8094 22.4659 31.4089 22.8664C31.0084 23.2669 30.4652 23.4919 29.8987 23.4919H9.42665C8.29393 23.4921 7.2077 23.9423 6.40687 24.7434L2.13562 29.0146V4.27125C2.13562 3.70485 2.36063 3.16164 2.76113 2.76114C3.16164 2.36063 3.70485 2.13563 4.27125 2.13563H29.8987ZM4.27125 0C3.13844 0 2.05203 0.450006 1.25102 1.25102C0.450005 2.05204 0 3.13844 0 4.27125L0 31.5923C4.48799e-05 31.8036 0.0627715 32.0101 0.180241 32.1857C0.29771 32.3614 0.464641 32.4982 0.659907 32.5789C0.855172 32.6596 1.06999 32.6806 1.27718 32.6392C1.48437 32.5977 1.67461 32.4958 1.82382 32.3462L7.91676 26.2532C8.31718 25.8527 8.86029 25.6276 9.42665 25.6275H29.8987C31.0316 25.6275 32.118 25.1775 32.919 24.3765C33.72 23.5755 34.17 22.4891 34.17 21.3563V4.27125C34.17 3.13844 33.72 2.05204 32.919 1.25102C32.118 0.450006 31.0316 0 29.8987 0L4.27125 0Z" fill="#A3A3A3"/>
<path d="M6.40723 7.47479C6.40723 7.19159 6.51973 6.91999 6.71998 6.71974C6.92024 6.51948 7.19184 6.40698 7.47504 6.40698H26.6957C26.9789 6.40698 27.2505 6.51948 27.4507 6.71974C27.651 6.91999 27.7635 7.19159 27.7635 7.47479C27.7635 7.758 27.651 8.0296 27.4507 8.22985C27.2505 8.43011 26.9789 8.54261 26.6957 8.54261H7.47504C7.19184 8.54261 6.92024 8.43011 6.71998 8.22985C6.51973 8.0296 6.40723 7.758 6.40723 7.47479ZM6.40723 12.8139C6.40723 12.5307 6.51973 12.2591 6.71998 12.0588C6.92024 11.8585 7.19184 11.746 7.47504 11.746H26.6957C26.9789 11.746 27.2505 11.8585 27.4507 12.0588C27.651 12.2591 27.7635 12.5307 27.7635 12.8139C27.7635 13.0971 27.651 13.3687 27.4507 13.5689C27.2505 13.7692 26.9789 13.8817 26.6957 13.8817H7.47504C7.19184 13.8817 6.92024 13.7692 6.71998 13.5689C6.51973 13.3687 6.40723 13.0971 6.40723 12.8139ZM6.40723 18.1529C6.40723 17.8697 6.51973 17.5981 6.71998 17.3979C6.92024 17.1976 7.19184 17.0851 7.47504 17.0851H18.1532C18.4364 17.0851 18.708 17.1976 18.9082 17.3979C19.1085 17.5981 19.221 17.8697 19.221 18.1529C19.221 18.4361 19.1085 18.7077 18.9082 18.908C18.708 19.1082 18.4364 19.2207 18.1532 19.2207H7.47504C7.19184 19.2207 6.92024 19.1082 6.71998 18.908C6.51973 18.7077 6.40723 18.4361 6.40723 18.1529Z" fill="#A3A3A3"/>
</g>
<defs>
<clipPath id="clip0_502_654">
<rect width="34.17" height="34.17" fill="white"/>
</clipPath>
</defs>
</svg>
