<svg width="30" height="30" viewBox="0 0 30 30" fill="none" xmlns="http://www.w3.org/2000/svg">
<path d="M26.667 10.9V22.2583L20.5337 16.125L19.3587 17.3L25.3837 23.3333H4.71699L10.5503 17.3L9.35033 16.1417L3.33366 22.3667V7.93333L13.692 18.2417C14.0043 18.5521 14.4267 18.7263 14.867 18.7263C15.3073 18.7263 15.7297 18.5521 16.042 18.2417L23.4003 10.925C22.8131 10.7717 22.2516 10.5331 21.7337 10.2167L14.8503 17.0583L4.42533 6.66667H19.0087C18.8475 6.12536 18.7606 5.56468 18.7503 5H3.33366C2.89163 5 2.46771 5.17559 2.15515 5.48816C1.84259 5.80072 1.66699 6.22464 1.66699 6.66667V23.3333C1.66699 23.7754 1.84259 24.1993 2.15515 24.5119C2.46771 24.8244 2.89163 25 3.33366 25H26.667C27.109 25 27.533 24.8244 27.8455 24.5119C28.1581 24.1993 28.3337 23.7754 28.3337 23.3333V10.1667C27.8172 10.4917 27.2556 10.7388 26.667 10.9Z" fill="#C4C4C4"/>
<path d="M24.9997 9.16659C27.3009 9.16659 29.1663 7.30111 29.1663 4.99992C29.1663 2.69873 27.3009 0.833252 24.9997 0.833252C22.6985 0.833252 20.833 2.69873 20.833 4.99992C20.833 7.30111 22.6985 9.16659 24.9997 9.16659Z" fill="#FF008A"/>
<path d="M15.228 19C15.228 18.82 15.242 18.658 15.27 18.514C15.298 18.37 15.346 18.236 15.414 18.112C15.486 17.988 15.582 17.872 15.702 17.764C15.826 17.652 15.982 17.544 16.17 17.44C16.334 17.352 16.478 17.276 16.602 17.212C16.726 17.144 16.83 17.082 16.914 17.026C17.002 16.97 17.068 16.914 17.112 16.858C17.156 16.798 17.178 16.73 17.178 16.654C17.178 16.574 17.156 16.502 17.112 16.438C17.068 16.37 17.006 16.316 16.926 16.276C16.846 16.236 16.746 16.216 16.626 16.216C16.53 16.216 16.44 16.228 16.356 16.252C16.276 16.276 16.2 16.31 16.128 16.354C16.06 16.398 15.996 16.448 15.936 16.504C15.876 16.556 15.822 16.612 15.774 16.672L15.264 16.084C15.32 16.028 15.394 15.968 15.486 15.904C15.582 15.836 15.694 15.774 15.822 15.718C15.954 15.658 16.098 15.61 16.254 15.574C16.414 15.534 16.584 15.514 16.764 15.514C17.036 15.514 17.268 15.558 17.46 15.646C17.652 15.73 17.798 15.848 17.898 16C18.002 16.152 18.054 16.33 18.054 16.534C18.054 16.674 18.028 16.798 17.976 16.906C17.924 17.014 17.858 17.11 17.778 17.194C17.698 17.274 17.61 17.346 17.514 17.41C17.422 17.474 17.332 17.53 17.244 17.578C17.12 17.642 17.008 17.702 16.908 17.758C16.808 17.81 16.72 17.864 16.644 17.92C16.568 17.972 16.5 18.026 16.44 18.082C16.384 18.138 16.334 18.202 16.29 18.274H18.12V19H15.228Z" fill="white"/>
</svg>
