<svg width="35" height="35" viewBox="0 0 35 35" fill="none" xmlns="http://www.w3.org/2000/svg">
<g clip-path="url(#clip0_502_648)">
<path d="M27.05 4.27139H25.6263V1.42407H22.779V4.27139H11.3898V1.42407H8.54245V4.27139H7.1188C5.55278 4.27139 4.27148 5.55268 4.27148 7.1187V27.0499C4.27148 28.6159 5.55278 29.8972 7.1188 29.8972H27.05C28.616 29.8972 29.8973 28.6159 29.8973 27.0499V7.1187C29.8973 5.55268 28.616 4.27139 27.05 4.27139ZM27.05 27.0499H7.1188V12.8133H27.05V27.0499ZM7.1188 9.96601V7.1187H27.05V9.96601H7.1188ZM15.0343 24.8575L23.4766 16.4152L21.9675 14.9061L15.0343 21.8393L12.0304 18.8354L10.5213 20.3445L15.0343 24.8575Z" fill="#A3A3A3"/>
</g>
<defs>
<clipPath id="clip0_502_648">
<rect width="34.1678" height="34.1678" fill="white"/>
</clipPath>
</defs>
</svg>
