<svg width="63" height="68" viewBox="0 0 63 68" fill="none" xmlns="http://www.w3.org/2000/svg">
<path d="M62.2891 55.2498L25.8074 0.000145938L25.8074 12.6731L34.1377 26.5048L38.3028 33.4207L47.3319 39.3299L43.4819 41.7334L59.1285 68.0001L62.2891 55.2498Z" fill="#8EDDE6"/>
<path d="M0 55.2498L36.4817 0.000145938L36.4817 12.6731L28.1514 26.5048L23.9862 33.4207L14.9572 39.3299L18.8071 41.7334L3.16055 68.0001L0 55.2498Z" fill="#2697FE"/>
<path d="M38.2708 44.0157L45.6531 39.3969L31.5732 30.5898V38.8928L38.2708 44.0157Z" fill="#2697FE"/>
<path d="M24.0085 44.0157L16.6262 39.3969L30.7061 30.5898V38.8928L24.0085 44.0157Z" fill="#8EDDE5"/>
<path d="M34.2724 51.6313V42.1349L31.0749 39.95L28.0137 42.1349V56.4358L40.6959 66.1698V56.5603L34.2724 51.6313Z" fill="#FF7CBB"/>
</svg>
