<svg width="30" height="30" viewBox="0 0 30 30" fill="none" xmlns="http://www.w3.org/2000/svg">
<path d="M14.9999 28.5667C15.5249 28.5547 16.0286 28.3573 16.4221 28.0096C16.8156 27.6619 17.0734 27.1862 17.1499 26.6667H12.7666C12.8453 27.2003 13.1152 27.6872 13.526 28.0367C13.9368 28.3862 14.4606 28.5745 14.9999 28.5667Z" fill="#C4C4C4"/>
<path d="M27.092 23.1917C26.2884 22.4754 25.5849 21.6541 25.0003 20.7501C24.3622 19.5022 23.9797 18.1394 23.8753 16.7417V12.6251C23.8719 12.125 23.8273 11.6261 23.742 11.1334C23.0861 11.0023 22.4557 10.7659 21.8753 10.4334C22.0966 11.1458 22.2089 11.8875 22.2087 12.6334V16.7501C22.3108 18.4551 22.7798 20.118 23.5837 21.6251C24.159 22.5368 24.8417 23.3761 25.617 24.1251H4.27533C5.05067 23.3761 5.73332 22.5368 6.30866 21.6251C7.1125 20.118 7.58152 18.4551 7.68366 16.7501V12.6251C7.67927 11.6607 7.86517 10.7048 8.23069 9.81235C8.59622 8.91986 9.1342 8.10825 9.81384 7.42397C10.4935 6.73969 11.3014 6.19619 12.1914 5.82459C13.0814 5.45299 14.0359 5.2606 15.0003 5.25841C16.4118 5.25954 17.7916 5.67696 18.967 6.45841C18.8374 5.98257 18.7647 5.49304 18.7503 5.00008V4.47508C17.8802 4.04705 16.9454 3.76549 15.9837 3.64175V2.59175C15.9837 2.29669 15.8664 2.01373 15.6578 1.80509C15.4492 1.59646 15.1662 1.47925 14.8712 1.47925C14.5761 1.47925 14.2931 1.59646 14.0845 1.80509C13.8759 2.01373 13.7587 2.29669 13.7587 2.59175V3.68341C11.6051 3.98721 9.63414 5.05987 8.20968 6.70336C6.78522 8.34685 6.00343 10.4502 6.00866 12.6251V16.7417C5.90429 18.1394 5.52181 19.5022 4.88366 20.7501C4.30939 21.652 3.61715 22.4732 2.82533 23.1917C2.73644 23.2698 2.66519 23.366 2.61634 23.4737C2.56749 23.5815 2.54214 23.6984 2.54199 23.8167V24.9501C2.54199 25.1711 2.62979 25.3831 2.78607 25.5393C2.94235 25.6956 3.15431 25.7834 3.37533 25.7834H26.542C26.763 25.7834 26.975 25.6956 27.1312 25.5393C27.2875 25.3831 27.3753 25.1711 27.3753 24.9501V23.8167C27.3752 23.6984 27.3498 23.5815 27.301 23.4737C27.2521 23.366 27.1809 23.2698 27.092 23.1917Z" fill="#C4C4C4"/>
<path d="M24.9997 9.16659C27.3009 9.16659 29.1663 7.30111 29.1663 4.99992C29.1663 2.69873 27.3009 0.833252 24.9997 0.833252C22.6985 0.833252 20.833 2.69873 20.833 4.99992C20.833 7.30111 22.6985 9.16659 24.9997 9.16659Z" fill="#2697FE"/>
<path d="M25.205 7.59525V6.70125H23.453V5.98725L25.463 3.40725H26.009V5.98125H26.537V6.70125H26.009V7.59525H25.205ZM24.257 5.98125H25.295V4.62525L24.257 5.98125Z" fill="white"/>
</svg>
