<svg width="35" height="35" viewBox="0 0 35 35" fill="none" xmlns="http://www.w3.org/2000/svg">
<g clip-path="url(#clip0_502_644)">
<path d="M27.0496 19.9307V8.5414C27.0496 6.97538 25.7684 5.69409 24.2023 5.69409H4.27114C2.70512 5.69409 1.42383 6.97538 1.42383 8.5414V19.9307C1.42383 21.4967 2.70512 22.778 4.27114 22.778H24.2023C25.7684 22.778 27.0496 21.4967 27.0496 19.9307ZM24.2023 19.9307H4.27114V8.5414H24.2023V19.9307ZM14.2367 9.96506C11.8735 9.96506 9.96577 11.8728 9.96577 14.236C9.96577 16.5993 11.8735 18.507 14.2367 18.507C16.6 18.507 18.5077 16.5993 18.5077 14.236C18.5077 11.8728 16.6 9.96506 14.2367 9.96506ZM32.7443 9.96506V25.6253C32.7443 27.1913 31.463 28.4726 29.897 28.4726H5.6948C5.6948 27.0489 5.6948 27.1913 5.6948 25.6253H29.897V9.96506C31.463 9.96506 31.3206 9.96506 32.7443 9.96506Z" fill="#A3A3A3"/>
</g>
<defs>
<clipPath id="clip0_502_644">
<rect width="34.1678" height="34.1678" fill="white"/>
</clipPath>
</defs>
</svg>
