<svg width="35" height="35" viewBox="0 0 35 35" fill="none" xmlns="http://www.w3.org/2000/svg">
<g clip-path="url(#clip0_502_635)">
<path d="M23.7324 18.6936C25.6828 20.0176 27.0495 21.8114 27.0495 24.2032V28.4741H32.7442V24.2032C32.7442 21.0996 27.6617 19.2631 23.7324 18.6936Z" fill="#A3A3A3"/>
<path d="M21.3554 17.0848C24.5017 17.0848 27.05 14.5365 27.05 11.3902C27.05 8.2439 24.5017 5.69556 21.3554 5.69556C20.6863 5.69556 20.0598 5.83792 19.4619 6.03723C20.6435 7.5036 21.3554 9.36859 21.3554 11.3902C21.3554 13.4118 20.6435 15.2768 19.4619 16.7431C20.0598 16.9424 20.6863 17.0848 21.3554 17.0848Z" fill="#A3A3A3"/>
<path d="M12.8128 17.0848C15.9591 17.0848 18.5074 14.5365 18.5074 11.3902C18.5074 8.2439 15.9591 5.69556 12.8128 5.69556C9.66651 5.69556 7.11816 8.2439 7.11816 11.3902C7.11816 14.5365 9.66651 17.0848 12.8128 17.0848ZM12.8128 8.54287C14.3788 8.54287 15.6601 9.82416 15.6601 11.3902C15.6601 12.9562 14.3788 14.2375 12.8128 14.2375C11.2468 14.2375 9.96548 12.9562 9.96548 11.3902C9.96548 9.82416 11.2468 8.54287 12.8128 8.54287Z" fill="#A3A3A3"/>
<path d="M12.8131 18.5093C9.01192 18.5093 1.42383 20.417 1.42383 24.2039V28.4749H24.2023V24.2039C24.2023 20.417 16.6142 18.5093 12.8131 18.5093ZM21.355 25.6276H4.27114V24.2181C4.55587 23.1931 8.96921 21.3566 12.8131 21.3566C16.657 21.3566 21.0703 23.1931 21.355 24.2039V25.6276Z" fill="#A3A3A3"/>
</g>
<defs>
<clipPath id="clip0_502_635">
<rect width="34.1678" height="34.1678" fill="white"/>
</clipPath>
</defs>
</svg>
