<svg width="35" height="35" viewBox="0 0 35 35" fill="none" xmlns="http://www.w3.org/2000/svg">
<g clip-path="url(#clip0_502_651)">
<path d="M27.6614 18.4797C27.7184 18.0241 27.7611 17.5685 27.7611 17.0845C27.7611 16.6004 27.7184 16.1449 27.6614 15.6893L30.6653 13.3403C30.9358 13.1267 31.007 12.7423 30.8362 12.4291L27.9889 7.50326C27.8607 7.27547 27.6187 7.14734 27.3624 7.14734C27.277 7.14734 27.1916 7.16158 27.1204 7.19005L23.5755 8.61371C22.8352 8.04425 22.038 7.57444 21.1695 7.21853L20.6286 3.44584C20.5858 3.10416 20.2869 2.8479 19.931 2.8479H14.2363C13.8804 2.8479 13.5815 3.10416 13.5387 3.44584L12.9978 7.21853C12.1293 7.57444 11.3321 8.05848 10.5918 8.61371L7.04687 7.19005C6.96145 7.16158 6.87603 7.14734 6.79061 7.14734C6.54859 7.14734 6.30657 7.27547 6.17844 7.50326L3.33113 12.4291C3.14605 12.7423 3.23147 13.1267 3.50197 13.3403L6.50588 15.6893C6.44893 16.1449 6.40622 16.6147 6.40622 17.0845C6.40622 17.5543 6.44893 18.0241 6.50588 18.4797L3.50197 20.8287C3.23147 21.0422 3.16029 21.4266 3.33113 21.7398L6.17844 26.6657C6.30657 26.8935 6.54859 27.0216 6.80485 27.0216C6.89027 27.0216 6.97569 27.0074 7.04687 26.9789L10.5918 25.5552C11.3321 26.1247 12.1293 26.5945 12.9978 26.9504L13.5387 30.7231C13.5815 31.0648 13.8804 31.321 14.2363 31.321H19.931C20.2869 31.321 20.5858 31.0648 20.6286 30.7231L21.1695 26.9504C22.038 26.5945 22.8352 26.1105 23.5755 25.5552L27.1204 26.9789C27.2058 27.0074 27.2913 27.0216 27.3767 27.0216C27.6187 27.0216 27.8607 26.8935 27.9889 26.6657L30.8362 21.7398C31.007 21.4266 30.9358 21.0422 30.6653 20.8287L27.6614 18.4797ZM24.8426 16.0452C24.8995 16.4865 24.9138 16.7855 24.9138 17.0845C24.9138 17.3834 24.8853 17.6966 24.8426 18.1237L24.6433 19.7325L25.9103 20.729L27.4479 21.9249L26.4513 23.6475L24.6433 22.9215L23.1627 22.3235L21.8814 23.2916C21.2692 23.7472 20.6855 24.0889 20.1018 24.3309L18.5927 24.9431L18.3649 26.5518L18.0802 28.4737H16.0871L15.8166 26.5518L15.5888 24.9431L14.0797 24.3309C13.4676 24.0746 12.8981 23.7472 12.3286 23.3201L11.0331 22.3235L9.52403 22.9357L7.71599 23.6618L6.71943 21.9391L8.25698 20.7433L9.52403 19.7467L9.32472 18.138C9.28201 17.6966 9.25354 17.3692 9.25354 17.0845C9.25354 16.7997 9.28201 16.4723 9.32472 16.0452L9.52403 14.4365L8.25698 13.4399L6.71943 12.244L7.71599 10.5214L9.52403 11.2475L11.0046 11.8454L12.2859 10.8773C12.8981 10.4218 13.4818 10.0801 14.0655 9.83806L15.5746 9.22588L15.8024 7.61715L16.0871 5.69521H18.066L18.3365 7.61715L18.5643 9.22588L20.0733 9.83806C20.6855 10.0943 21.255 10.4218 21.8244 10.8489L23.12 11.8454L24.629 11.2332L26.4371 10.5072L27.4336 12.2298L25.9103 13.4399L24.6433 14.4365L24.8426 16.0452ZM17.0836 11.3898C13.9374 11.3898 11.389 13.9382 11.389 17.0845C11.389 20.2308 13.9374 22.7791 17.0836 22.7791C20.2299 22.7791 22.7783 20.2308 22.7783 17.0845C22.7783 13.9382 20.2299 11.3898 17.0836 11.3898ZM17.0836 19.9318C15.5176 19.9318 14.2363 18.6505 14.2363 17.0845C14.2363 15.5184 15.5176 14.2372 17.0836 14.2372C18.6497 14.2372 19.931 15.5184 19.931 17.0845C19.931 18.6505 18.6497 19.9318 17.0836 19.9318Z" fill="#A3A3A3"/>
</g>
<defs>
<clipPath id="clip0_502_651">
<rect width="34.1678" height="34.1678" fill="white"/>
</clipPath>
</defs>
</svg>
