<svg width="35" height="35" viewBox="0 0 35 35" fill="none" xmlns="http://www.w3.org/2000/svg">
<path d="M30.2327 7.52798L17.419 3.25673C17.2016 3.18982 16.969 3.18982 16.7516 3.25673L3.95121 7.52798H3.92451L3.79104 7.59471H3.77769L3.64421 7.6748C3.64421 7.68815 3.63087 7.68815 3.61752 7.7015L3.51074 7.79493L3.4173 7.90171C3.4173 7.91506 3.40395 7.91506 3.40395 7.92841L3.32387 8.04853C3.32387 8.06188 3.32387 8.06188 3.31052 8.07523L3.25713 8.19536L3.21709 8.34218V8.38223C3.20392 8.43453 3.19941 8.48864 3.20374 8.5424V19.2205C3.20374 19.5037 3.31624 19.7753 3.5165 19.9756C3.71675 20.1758 3.98835 20.2883 4.27155 20.2883C4.55475 20.2883 4.82636 20.1758 5.02661 19.9756C5.22686 19.7753 5.33936 19.5037 5.33936 19.2205V10.024L9.82417 11.5189C8.98162 12.8676 8.53742 14.4269 8.5428 16.0171C8.54329 17.4633 8.91095 18.8857 9.61132 20.1511C10.3117 21.4164 11.3218 22.4832 12.5471 23.2515C10.0009 24.2147 7.82718 25.9631 6.34044 28.2435C6.1889 28.4832 6.13756 28.7727 6.19748 29.0499C6.2574 29.327 6.42378 29.5695 6.66078 29.7251C6.77709 29.8022 6.90753 29.8554 7.04455 29.8817C7.18157 29.908 7.32245 29.9068 7.45901 29.8783C7.59558 29.8497 7.72512 29.7943 7.84013 29.7153C7.95514 29.6364 8.05334 29.5353 8.12902 29.4181C9.09823 27.9252 10.4253 26.6982 11.9895 25.8488C13.5536 24.9994 15.3054 24.5544 17.0853 24.5544C18.8652 24.5544 20.617 24.9994 22.1811 25.8488C23.7453 26.6982 25.0724 27.9252 26.0416 29.4181C26.1391 29.5662 26.2718 29.6876 26.428 29.7715C26.5841 29.8554 26.7586 29.8991 26.9359 29.8986C27.1404 29.9008 27.3407 29.8403 27.5098 29.7251C27.7468 29.5695 27.9132 29.327 27.9731 29.0499C28.033 28.7727 27.9817 28.4832 27.8302 28.2435C26.3434 25.9631 24.1697 24.2147 21.6235 23.2515C22.8488 22.4832 23.8589 21.4164 24.5593 20.1511C25.2596 18.8857 25.6273 17.4633 25.6278 16.0171C25.6332 14.4269 25.189 12.8676 24.3464 11.5189L30.2327 9.55682C30.4464 9.4866 30.6324 9.35073 30.7643 9.16857C30.8961 8.98642 30.9671 8.76728 30.9671 8.5424C30.9671 8.31752 30.8961 8.09838 30.7643 7.91622C30.6324 7.73407 30.4464 7.59819 30.2327 7.52798ZM23.4922 16.0171C23.4922 17.7163 22.8172 19.3459 21.6156 20.5474C20.4141 21.749 18.7845 22.424 17.0853 22.424C15.3861 22.424 13.7565 21.749 12.555 20.5474C11.3534 19.3459 10.6784 17.7163 10.6784 16.0171C10.681 14.6499 11.1155 13.3185 11.9198 12.213L16.7516 13.8281C16.9684 13.8994 17.2022 13.8994 17.419 13.8281L22.2508 12.213C23.0551 13.3185 23.4896 14.6499 23.4922 16.0171ZM22.2508 9.9706H22.2375L17.0853 11.6924L11.9331 9.9706H11.9198L7.64851 8.5424L17.0853 5.39235L26.5221 8.5424L22.2508 9.9706Z" fill="#A3A3A3"/>
</svg>
